<svg width="630" height="630" viewBox="0 0 630 630" fill="none" xmlns="http://www.w3.org/2000/svg">
<g clip-path="url(#clip0_508_32995)">
<g clip-path="url(#clip1_508_32995)">
<path d="M334.578 80C277.036 80 222.945 102.408 182.26 143.094L143.094 182.26C102.408 222.945 80 277.036 80 334.578C80 392.121 102.408 446.212 143.094 486.897C183.779 527.583 237.87 549.991 295.413 549.991C352.955 549.991 407.046 527.583 447.731 486.897L486.897 447.731C527.583 407.046 549.991 352.955 549.991 295.413C549.991 237.87 527.583 183.779 486.897 143.094C446.212 102.408 392.121 80 334.578 80ZM429.271 468.437C355.456 542.241 235.369 542.241 161.554 468.437C87.7444 394.628 87.7444 274.529 161.554 200.72C198.459 163.82 246.936 145.36 295.413 145.36C343.889 145.36 392.361 163.815 429.271 200.72C503.081 274.529 503.081 394.628 429.271 468.437ZM507.472 372.407C509.65 360.036 510.825 347.404 510.825 334.578C510.825 277.036 488.417 222.945 447.731 182.26C407.046 141.574 352.955 119.166 295.413 119.166C282.592 119.166 269.955 120.341 257.589 122.519C282.028 111.667 308.296 106.194 334.578 106.194C383.055 106.194 431.527 124.649 468.437 161.554C525.348 218.47 538.33 302.891 507.472 372.407Z" fill="#E29564"/>
<path d="M295.413 171.387C261.553 171.387 230.074 181.758 203.974 199.482C203.525 199.748 203.107 200.072 202.689 200.396C160.155 229.88 132.222 279.015 132.222 334.578C132.222 424.56 205.431 497.769 295.413 497.769C350.982 497.769 400.127 469.831 429.611 427.286C429.93 426.874 430.243 426.467 430.509 426.028C448.233 399.922 458.604 368.438 458.604 334.578C458.604 244.596 385.395 171.387 295.413 171.387ZM295.413 471.659C219.823 471.659 158.332 410.168 158.332 334.578C158.332 312.457 163.633 291.558 172.98 273.041C171.967 280.414 171.388 287.877 171.388 295.412C171.388 385.395 244.597 458.603 334.579 458.603C342.114 458.603 349.577 458.024 356.95 457.011C338.433 466.358 317.534 471.659 295.413 471.659ZM409.887 409.86C387.489 424.634 361.53 432.493 334.579 432.493C258.989 432.493 197.498 371.002 197.498 295.412C197.498 268.461 205.357 242.502 220.131 220.104C241.756 205.837 267.626 197.497 295.413 197.497C371.003 197.497 432.494 258.988 432.494 334.578C432.494 362.37 424.159 388.241 409.887 409.86Z" fill="#E29564"/>
</g>
</g>
<defs>
<clipPath id="clip0_508_32995">
<rect width="469.991" height="469.991" fill="white" transform="translate(80 80)"/>
</clipPath>
<clipPath id="clip1_508_32995">
<rect width="469.991" height="469.991" fill="white" transform="translate(80 80)"/>
</clipPath>
</defs>
</svg>
