<svg viewBox="0 0 50 50" fill="current" xmlns="http://www.w3.org/2000/svg">
<path d="M47.1977 40.5351C47.7035 39.9022 47.9805 39.1169 47.9839 38.3068C47.9839 37.3443 47.6015 36.4212 46.921 35.7407C46.2404 35.0601 45.3173 34.6777 44.3548 34.6777C43.3924 34.6777 42.4693 35.0601 41.7887 35.7407C41.1082 36.4212 40.7258 37.3443 40.7258 38.3068C40.7291 39.1169 41.0062 39.9022 41.512 40.5351C40.7146 40.7912 40.017 41.2895 39.5161 41.9608C39.0153 41.2895 38.3176 40.7912 37.5202 40.5351C38.0261 39.9022 38.3031 39.1169 38.3065 38.3068C38.3065 37.3443 37.9241 36.4212 37.2435 35.7407C36.563 35.0601 35.6399 34.6777 34.6774 34.6777C33.7149 34.6777 32.7919 35.0601 32.1113 35.7407C31.4307 36.4212 31.0484 37.3443 31.0484 38.3068C31.0517 39.1169 31.3288 39.9022 31.8346 40.5351C31.0372 40.7912 30.3395 41.2895 29.8387 41.9608C29.3379 41.2895 28.6402 40.7912 27.8428 40.5351C28.3486 39.9022 28.6257 39.1169 28.629 38.3068C28.629 37.3443 28.2467 36.4212 27.5661 35.7407C26.8855 35.0601 25.9625 34.6777 25 34.6777C24.0375 34.6777 23.1145 35.0601 22.4339 35.7407C21.7533 36.4212 21.371 37.3443 21.371 38.3068C21.3743 39.1169 21.6514 39.9022 22.1572 40.5351C21.3598 40.7912 20.6621 41.2895 20.1613 41.9608C19.6605 41.2895 18.9628 40.7912 18.1654 40.5351C18.6712 39.9022 18.9483 39.1169 18.9516 38.3068C18.9516 37.3443 18.5693 36.4212 17.8887 35.7407C17.2081 35.0601 16.2851 34.6777 15.3226 34.6777C14.3601 34.6777 13.437 35.0601 12.7565 35.7407C12.0759 36.4212 11.6935 37.3443 11.6935 38.3068C11.6969 39.1169 11.9739 39.9022 12.4798 40.5351C11.6824 40.7912 10.9847 41.2895 10.4839 41.9608C9.98304 41.2895 9.28536 40.7912 8.48798 40.5351C8.9938 39.9022 9.27087 39.1169 9.27419 38.3068C9.27419 37.3443 8.89185 36.4212 8.21127 35.7407C7.5307 35.0601 6.60764 34.6777 5.64516 34.6777C4.68268 34.6777 3.75962 35.0601 3.07905 35.7407C2.39847 36.4212 2.01613 37.3443 2.01613 38.3068C2.01945 39.1169 2.29652 39.9022 2.80235 40.5351C1.99124 40.7936 1.283 41.3026 0.779464 41.989C0.275924 42.6755 0.00302301 43.5039 0 44.3552V49.1939C0 49.4077 0.0849652 49.6129 0.236204 49.7641C0.387443 49.9154 0.592567 50.0003 0.806452 50.0003H49.1935C49.4074 50.0003 49.6126 49.9154 49.7638 49.7641C49.915 49.6129 50 49.4077 50 49.1939V44.3552C49.997 43.5039 49.7241 42.6755 49.2205 41.989C48.717 41.3026 48.0088 40.7936 47.1977 40.5351ZM5.64516 36.2906C6.04391 36.2906 6.43371 36.4089 6.76526 36.6304C7.09681 36.852 7.35523 37.1668 7.50782 37.5352C7.66042 37.9036 7.70034 38.309 7.62255 38.7001C7.54476 39.0912 7.35274 39.4504 7.07078 39.7324C6.78882 40.0143 6.42958 40.2064 6.03849 40.2842C5.6474 40.3619 5.24202 40.322 4.87362 40.1694C4.50522 40.0168 4.19035 39.7584 3.96881 39.4269C3.74728 39.0953 3.62903 38.7055 3.62903 38.3068C3.62966 37.7722 3.84227 37.2598 4.22024 36.8818C4.5982 36.5039 5.11064 36.2913 5.64516 36.2906ZM9.67742 48.3874H1.6129V44.3552C1.6136 43.7137 1.86872 43.0988 2.32229 42.6452C2.77585 42.1916 3.39082 41.9365 4.03226 41.9358H7.25806C7.8995 41.9365 8.51447 42.1916 8.96803 42.6452C9.4216 43.0988 9.67672 43.7137 9.67742 44.3552V48.3874ZM15.3226 36.2906C15.7213 36.2906 16.1111 36.4089 16.4427 36.6304C16.7742 36.852 17.0326 37.1668 17.1852 37.5352C17.3378 37.9036 17.3778 38.309 17.3 38.7001C17.2222 39.0912 17.0302 39.4504 16.7482 39.7324C16.4662 40.0143 16.107 40.2064 15.7159 40.2842C15.3248 40.3619 14.9194 40.322 14.551 40.1694C14.1826 40.0168 13.8678 39.7584 13.6462 39.4269C13.4247 39.0953 13.3065 38.7055 13.3065 38.3068C13.3071 37.7722 13.5197 37.2598 13.8977 36.8818C14.2756 36.5039 14.7881 36.2913 15.3226 36.2906ZM19.3548 48.3874H11.2903V44.3552C11.291 43.7137 11.5461 43.0988 11.9997 42.6452C12.4533 42.1916 13.0682 41.9365 13.7097 41.9358H16.9355C17.5769 41.9365 18.1919 42.1916 18.6455 42.6452C19.099 43.0988 19.3541 43.7137 19.3548 44.3552V48.3874ZM25 36.2906C25.3988 36.2906 25.7886 36.4089 26.1201 36.6304C26.4517 36.852 26.7101 37.1668 26.8627 37.5352C27.0153 37.9036 27.0552 38.309 26.9774 38.7001C26.8996 39.0912 26.7076 39.4504 26.4256 39.7324C26.1437 40.0143 25.7844 40.2064 25.3933 40.2842C25.0022 40.3619 24.5969 40.322 24.2285 40.1694C23.8601 40.0168 23.5452 39.7584 23.3236 39.4269C23.1021 39.0953 22.9839 38.7055 22.9839 38.3068C22.9845 37.7722 23.1971 37.2598 23.5751 36.8818C23.953 36.5039 24.4655 36.2913 25 36.2906ZM29.0323 48.3874H20.9677V44.3552C20.9684 43.7137 21.2236 43.0988 21.6771 42.6452C22.1307 42.1916 22.7457 41.9365 23.3871 41.9358H26.6129C27.2543 41.9365 27.8693 42.1916 28.3229 42.6452C28.7764 43.0988 29.0316 43.7137 29.0323 44.3552V48.3874ZM34.6774 36.2906C35.0762 36.2906 35.466 36.4089 35.7975 36.6304C36.1291 36.852 36.3875 37.1668 36.5401 37.5352C36.6927 37.9036 36.7326 38.309 36.6548 38.7001C36.577 39.0912 36.385 39.4504 36.103 39.7324C35.8211 40.0143 35.4618 40.2064 35.0707 40.2842C34.6797 40.3619 34.2743 40.322 33.9059 40.1694C33.5375 40.0168 33.2226 39.7584 33.0011 39.4269C32.7795 39.0953 32.6613 38.7055 32.6613 38.3068C32.6619 37.7722 32.8745 37.2598 33.2525 36.8818C33.6305 36.5039 34.1429 36.2913 34.6774 36.2906ZM38.7097 48.3874H30.6452V44.3552C30.6459 43.7137 30.901 43.0988 31.3545 42.6452C31.8081 42.1916 32.4231 41.9365 33.0645 41.9358H36.2903C36.9318 41.9365 37.5467 42.1916 38.0003 42.6452C38.4539 43.0988 38.709 43.7137 38.7097 44.3552V48.3874ZM44.3548 36.2906C44.7536 36.2906 45.1434 36.4089 45.4749 36.6304C45.8065 36.852 46.0649 37.1668 46.2175 37.5352C46.3701 37.9036 46.41 38.309 46.3322 38.7001C46.2544 39.0912 46.0624 39.4504 45.7805 39.7324C45.4985 40.0143 45.1393 40.2064 44.7482 40.2842C44.3571 40.3619 43.9517 40.322 43.5833 40.1694C43.2149 40.0168 42.9 39.7584 42.6785 39.4269C42.457 39.0953 42.3387 38.7055 42.3387 38.3068C42.3393 37.7722 42.552 37.2598 42.9299 36.8818C43.3079 36.5039 43.8203 36.2913 44.3548 36.2906ZM48.3871 48.3874H40.3226V44.3552C40.3233 43.7137 40.5784 43.0988 41.032 42.6452C41.4855 42.1916 42.1005 41.9365 42.7419 41.9358H45.9677C46.6092 41.9365 47.2241 42.1916 47.6777 42.6452C48.1313 43.0988 48.3864 43.7137 48.3871 44.3552V48.3874Z" fill="current"/>
<path d="M49.1935 0H0.806452C0.592567 0 0.387443 0.0849652 0.236204 0.236204C0.0849652 0.387443 0 0.592567 0 0.806452V4.03226C0 4.24614 0.0849652 4.45127 0.236204 4.60251C0.387443 4.75374 0.592567 4.83871 0.806452 4.83871H1.6129V29.0323H0V30.6452H50V29.0323H48.3871V4.83871H49.1935C49.4074 4.83871 49.6126 4.75374 49.7638 4.60251C49.915 4.45127 50 4.24614 50 4.03226V0.806452C50 0.592567 49.915 0.387443 49.7638 0.236204C49.6126 0.0849652 49.4074 0 49.1935 0ZM6.45161 29.0323H3.22581V28.6574L6.45161 26.5068V29.0323ZM3.22581 26.719V23.8856L5.65461 25.1L3.22581 26.719ZM6.45161 23.695L4.02306 22.4807L6.45161 20.8617V23.695ZM3.22581 21.0739V18.2405L5.65461 19.4548L3.22581 21.0739ZM6.45161 18.0499L4.02306 16.8356L6.45161 15.2165V18.0499ZM3.22581 15.4287V12.5953L5.65461 13.8097L3.22581 15.4287ZM6.45161 12.4047L4.02306 11.1904L6.45161 9.57135V12.4047ZM3.22581 9.78354V6.95013L5.65461 8.16452L3.22581 9.78354ZM6.45161 6.75955L3.22581 5.14665V4.83871H6.45161V6.75955ZM23.721 29.0323L25 27.7533L26.279 29.0323H23.721ZM41.9355 29.0323H28.5597L25.8065 26.279V20.3222L26.7819 19.6715C27.197 19.9876 27.704 20.1596 28.2258 20.1613C28.7043 20.1613 29.1721 20.0194 29.5699 19.7536C29.9678 19.4877 30.2779 19.1099 30.461 18.6678C30.6441 18.2257 30.692 17.7393 30.5987 17.2699C30.5053 16.8006 30.2749 16.3695 29.9365 16.0312C29.5982 15.6928 29.1671 15.4624 28.6978 15.3691C28.2285 15.2757 27.742 15.3236 27.3 15.5067C26.8579 15.6899 26.48 16 26.2142 16.3978C25.9483 16.7957 25.8065 17.2634 25.8065 17.7419C25.8088 17.9403 25.8358 18.1376 25.8869 18.3292L20.52 21.9097L21.4155 23.2516L24.1935 21.3983V26.279L21.4403 29.0323H8.06452V4.83871H12.9032V5.64516H12.0968C11.8829 5.64516 11.6778 5.73013 11.5265 5.88137C11.3753 6.0326 11.2903 6.23773 11.2903 6.45161V9.67742C11.2903 9.8913 11.3753 10.0964 11.5265 10.2477C11.6778 10.3989 11.8829 10.4839 12.0968 10.4839H15.3226C15.5365 10.4839 15.7416 10.3989 15.8928 10.2477C16.0441 10.0964 16.129 9.8913 16.129 9.67742V6.45161C16.129 6.23773 16.0441 6.0326 15.8928 5.88137C15.7416 5.73013 15.5365 5.64516 15.3226 5.64516H14.5161V4.83871H24.1935V5.64516H23.3871C23.1732 5.64516 22.9681 5.73013 22.8168 5.88137C22.6656 6.0326 22.5806 6.23773 22.5806 6.45161V9.67742C22.5806 9.8913 22.6656 10.0964 22.8168 10.2477C22.9681 10.3989 23.1732 10.4839 23.3871 10.4839H26.6129C26.8268 10.4839 27.0319 10.3989 27.1832 10.2477C27.3344 10.0964 27.4194 9.8913 27.4194 9.67742V6.45161C27.4194 6.23773 27.3344 6.0326 27.1832 5.88137C27.0319 5.73013 26.8268 5.64516 26.6129 5.64516H25.8065V4.83871H35.4839V5.64516H34.6774C34.4635 5.64516 34.2584 5.73013 34.1072 5.88137C33.9559 6.0326 33.871 6.23773 33.871 6.45161V9.67742C33.871 9.8913 33.9559 10.0964 34.1072 10.2477C34.2584 10.3989 34.4635 10.4839 34.6774 10.4839H37.9032C38.1171 10.4839 38.3222 10.3989 38.4735 10.2477C38.6247 10.0964 38.7097 9.8913 38.7097 9.67742V6.45161C38.7097 6.23773 38.6247 6.0326 38.4735 5.88137C38.3222 5.73013 38.1171 5.64516 37.9032 5.64516H37.0968V4.83871H41.9355V29.0323ZM27.4194 17.7419C27.4194 17.5824 27.4667 17.4265 27.5553 17.2939C27.6439 17.1613 27.7698 17.0579 27.9172 16.9969C28.0646 16.9358 28.2267 16.9199 28.3831 16.951C28.5396 16.9821 28.6833 17.0589 28.7961 17.1717C28.9088 17.2845 28.9856 17.4282 29.0168 17.5846C29.0479 17.741 29.0319 17.9032 28.9709 18.0506C28.9098 18.1979 28.8065 18.3239 28.6738 18.4125C28.5412 18.5011 28.3853 18.5484 28.2258 18.5484C28.012 18.5481 27.807 18.4631 27.6559 18.3119C27.5047 18.1607 27.4196 17.9557 27.4194 17.7419ZM14.5161 7.25806V8.87097H12.9032V7.25806H14.5161ZM25.8065 7.25806V8.87097H24.1935V7.25806H25.8065ZM37.0968 7.25806V8.87097H35.4839V7.25806H37.0968ZM46.7742 29.0323H43.5484V28.6574L46.7742 26.5068V29.0323ZM43.5484 26.719V23.8856L45.9772 25.1L43.5484 26.719ZM46.7742 23.695L44.3456 22.4807L46.7742 20.8617V23.695ZM43.5484 21.0739V18.2405L45.9772 19.4548L43.5484 21.0739ZM46.7742 18.0499L44.3456 16.8356L46.7742 15.2165V18.0499ZM43.5484 15.4287V12.5953L45.9772 13.8097L43.5484 15.4287ZM46.7742 12.4047L44.3456 11.1904L46.7742 9.57135V12.4047ZM43.5484 9.78354V6.95013L45.9772 8.16452L43.5484 9.78354ZM46.7742 6.75955L43.5484 5.14665V4.83871H46.7742V6.75955ZM48.3871 3.22581H1.6129V1.6129H48.3871V3.22581Z" fill="current"/>
</svg>
