<svg viewBox="0 0 60 50" fill="current" xmlns="http://www.w3.org/2000/svg">
<path d="M30.9406 16.7334H29.008C28.6984 16.7338 28.4016 16.8684 28.1826 17.1077C27.9636 17.347 27.8403 17.6715 27.8398 18.0099V19.2133C27.8402 19.5518 27.9634 19.8764 28.1824 20.1158C28.4014 20.3553 28.6983 20.4899 29.008 20.4903H30.9406C31.2503 20.4899 31.5472 20.3553 31.7662 20.1158C31.9852 19.8764 32.1084 19.5518 32.1087 19.2133V18.0099C32.1084 17.6714 31.9851 17.3469 31.7661 17.1076C31.5471 16.8682 31.2502 16.7337 30.9406 16.7334ZM30.6836 18.9323H29.265V18.2914H30.6836V18.9323Z" fill="current"/>
<path d="M39.594 20.4845H41.527C41.8367 20.4841 42.1336 20.3494 42.3526 20.11C42.5716 19.8706 42.6948 19.546 42.6951 19.2074V18.0041C42.6946 17.6656 42.5714 17.3412 42.3524 17.1019C42.1334 16.8626 41.8366 16.728 41.527 16.7275H39.594C39.2843 16.728 38.9875 16.8626 38.7685 17.1019C38.5495 17.3412 38.4263 17.6656 38.4258 18.0041V19.2074C38.4262 19.546 38.5494 19.8706 38.7683 20.11C38.9873 20.3494 39.2842 20.4841 39.594 20.4845ZM39.851 18.2856H41.27V18.9264H39.851V18.2856Z" fill="current"/>
<path d="M20.3575 16.7275H18.4231C18.1134 16.7278 17.8165 16.8624 17.5975 17.1017C17.3785 17.341 17.2553 17.6656 17.2549 18.0041V19.2074C17.2553 19.546 17.3785 19.8706 17.5974 20.11C17.8164 20.3494 18.1134 20.4841 18.4231 20.4845H20.3575C20.6672 20.4841 20.964 20.3494 21.1829 20.11C21.4019 19.8705 21.5249 19.5459 21.5252 19.2074V18.0041C21.5248 17.6657 21.4017 17.3412 21.1828 17.1019C20.9639 16.8626 20.6671 16.728 20.3575 16.7275ZM20.1 18.9264H18.6801V18.2856H20.0986L20.1 18.9264Z" fill="current"/>
<path d="M59.2884 48.4425H57.8157V42.04C57.9691 41.9727 58.0963 41.8491 58.1755 41.6906C58.2548 41.532 58.2811 41.3482 58.2501 41.1707C58.2191 40.9933 58.1325 40.8331 58.0054 40.7177C57.8782 40.6022 57.7183 40.5387 57.553 40.538H50.0247V35.2314C53.391 33.7248 56.0822 30.8344 57.5197 27.1815C57.5559 27.0896 57.5867 26.9952 57.6119 26.899C57.8931 26.7619 58.1625 26.6206 58.4033 26.47C58.6411 26.3206 58.8258 26.0878 58.9276 25.8095C59.0294 25.5311 59.0423 25.2233 58.9644 24.9359C58.896 24.662 58.7444 24.4217 58.5345 24.2544C58.3246 24.0872 58.069 24.003 57.8095 24.0156C50.6679 24.3474 47.7762 22.6933 46.1169 21.1207V21.1109C50.6409 20.2664 53.8352 17.7637 55.114 14.0478C55.114 14.0478 55.2052 13.7943 55.2313 13.7066C55.5406 13.5632 55.8428 13.4152 56.1283 13.2547C56.3038 13.1564 56.4471 13.001 56.5386 12.81C56.6302 12.619 56.6654 12.4017 56.6394 12.188C56.6146 11.9754 56.5294 11.7767 56.3957 11.62C56.2621 11.4633 56.0868 11.3564 55.8945 11.3145C54.257 10.9416 49.2722 9.80836 46.6494 8.46689C46.0883 8.14028 45.6103 7.66626 45.2584 7.08751L43.6195 4.0322C43.5759 3.95255 43.5283 3.87557 43.477 3.80161C43.9796 3.5174 44.3972 3.08163 44.6803 2.54592C44.9634 2.01022 45.1 1.39703 45.0741 0.779018C45.0741 0.57241 44.999 0.374264 44.8654 0.22817C44.7318 0.0820753 44.5505 0 44.3615 0C44.1725 0 43.9913 0.0820753 43.8576 0.22817C43.724 0.374264 43.6489 0.57241 43.6489 0.779018C43.6489 1.67333 43.3701 2.71202 41.2024 2.81226C39.6347 2.886 34.6979 3.09946 30.0024 3.09946C25.3069 3.09946 20.3691 2.886 18.8024 2.81226C16.6347 2.71202 16.3558 1.67333 16.3558 0.779018C16.3558 0.57241 16.2807 0.374264 16.1471 0.22817C16.0135 0.0820753 15.8322 0 15.6432 0C15.4542 0 15.273 0.0820753 15.1394 0.22817C15.0057 0.374264 14.9306 0.57241 14.9306 0.779018C14.9047 1.39703 15.0414 2.01022 15.3245 2.54592C15.6075 3.08163 16.0251 3.5174 16.5278 3.80161C16.4764 3.87567 16.4288 3.95282 16.3853 4.03272L14.7463 7.08803C14.3943 7.66651 13.9163 8.14032 13.3553 8.46689C10.7325 9.80732 5.74774 10.9416 4.10974 11.315C3.91761 11.3568 3.74236 11.4636 3.60878 11.6203C3.4752 11.7769 3.39003 11.9755 3.36532 12.188C3.3387 12.4015 3.37312 12.6187 3.46387 12.81C3.55461 13.0012 3.69724 13.1571 3.87221 13.2563C4.16817 13.4225 4.48266 13.5762 4.80428 13.7237C4.82898 13.8047 4.91639 14.0488 4.91639 14.0488C6.1924 17.7554 9.37577 20.2545 13.8836 21.1046V21.1207C12.2242 22.6938 9.33064 24.348 2.19145 24.0156C1.9314 24.0001 1.67443 24.0832 1.46394 24.2509C1.25345 24.4186 1.10233 24.6605 1.0361 24.9359C0.958125 25.2232 0.971039 25.5308 1.07276 25.8091C1.17448 26.0874 1.35906 26.3201 1.59667 26.4695C1.8342 26.6191 2.10404 26.7598 2.38337 26.8964C2.40987 26.9939 2.44241 27.0893 2.48076 27.182C4.5639 32.147 7.85558 34.308 9.97577 35.2267V40.5375H2.39952C2.23423 40.5382 2.07431 40.6017 1.94713 40.7172C1.81995 40.8326 1.73344 40.9927 1.70239 41.1702C1.67135 41.3477 1.69771 41.5315 1.77696 41.6901C1.85621 41.8486 1.98343 41.9721 2.13682 42.0395V48.442H0.712589C0.523599 48.442 0.342349 48.524 0.208713 48.6701C0.0750762 48.8162 0 49.0144 0 49.221C0 49.4276 0.0750762 49.6257 0.208713 49.7718C0.342349 49.9179 0.523599 50 0.712589 50H59.2874C59.4764 50 59.6576 49.9179 59.7913 49.7718C59.9249 49.6257 60 49.4276 60 49.221C60 49.0144 59.9249 48.8162 59.7913 48.6701C59.6576 48.524 59.4764 48.442 59.2874 48.442L59.2884 48.4425ZM46.1169 19.5269V15.8001C48.5792 15.6038 51.0175 15.1409 53.3962 14.4181C52.1382 17.0288 49.5967 18.8169 46.1169 19.5269ZM13.9553 9.88003C14.7781 9.41968 15.4743 8.72857 15.9724 7.87744L17.6114 4.82264C17.6914 4.67428 17.8068 4.55245 17.9451 4.47013C18.0835 4.38781 18.2397 4.3481 18.3972 4.35523C19.4337 4.40717 24.8646 4.66009 30.0009 4.66009C35.1373 4.66009 40.5682 4.40613 41.6048 4.35523C41.7624 4.34624 41.9193 4.38515 42.058 4.46765C42.1967 4.55016 42.3118 4.67302 42.3905 4.82264L44.0294 7.87795C44.5276 8.72909 45.2238 9.4202 46.0466 9.88055C47.7093 10.7302 50.3734 11.5944 54.1634 12.5048C48.9121 14.6861 40.2071 14.6819 31.0385 14.6809H28.9629C19.7853 14.6861 11.0898 14.6866 5.838 12.5048C9.6285 11.5913 12.2926 10.7297 13.9553 9.88003ZM35.2675 17.1358C35.0785 17.1358 34.8972 17.2179 34.7636 17.364C34.6299 17.5101 34.5549 17.7082 34.5549 17.9148V20.6913H25.3924V17.9148C25.3924 17.7082 25.3173 17.5101 25.1837 17.364C25.05 17.2179 24.8688 17.1358 24.6798 17.1358C24.4908 17.1358 24.3096 17.2179 24.1759 17.364C24.0423 17.5101 23.9672 17.7082 23.9672 17.9148V20.6913H15.3093V15.9205C19.4727 16.2358 40.8238 16.2155 44.6917 15.9205V20.6892H35.98V17.9148C35.98 17.7082 35.905 17.5101 35.7713 17.364C35.6377 17.2179 35.4564 17.1358 35.2675 17.1358ZM6.6437 14.43C9.01035 15.144 11.4355 15.6018 13.8841 15.7969V19.5206C10.428 18.8102 7.89976 17.0262 6.6437 14.43ZM14.8698 22.2493H45.1311C46.8945 23.945 49.8375 25.7497 56.7701 25.6095C50.8993 28.295 36.3943 28.295 30.0005 28.295C23.6067 28.295 9.10261 28.295 3.2304 25.6095C10.143 25.7481 13.1059 23.945 14.8698 22.2493ZM4.29976 27.6515C11.1667 29.8515 24.0437 29.853 30.0005 29.853C35.9572 29.853 48.8318 29.853 55.6964 27.6526C54.4366 30.2315 52.4468 32.2951 50.0247 33.5347V33.0153C50.0247 32.8087 49.9496 32.6106 49.816 32.4645C49.6824 32.3184 49.5011 32.2363 49.3121 32.2363H10.6898C10.5008 32.2363 10.3195 32.3184 10.1859 32.4645C10.0523 32.6106 9.9772 32.8087 9.9772 33.0153V33.5347C7.55232 32.2968 5.56015 30.2324 4.29976 27.6515ZM11.4014 35.45V33.7959H48.5986V35.45H11.4014ZM48.5986 37.0081V40.5396H46.1629V37.0081H48.5986ZM44.7368 37.0081V40.5396H41.0124V37.0081H44.7368ZM22.3439 43.7133L22.3881 43.0901H37.561L37.6052 43.7133H22.3439ZM37.7159 45.2714L37.7734 46.0826H22.1758L22.2333 45.2714H37.7159ZM24.2499 41.5321V37.006H26.7131V41.5321H24.2499ZM28.1382 41.5321V37.006H31.8627V41.5321H28.1382ZM35.6993 41.5321H33.2879V37.006H35.7012L35.6993 41.5321ZM18.9359 37.006V40.5375H15.2114V37.006H18.9359ZM13.7862 37.006V40.5375H11.4014V37.006H13.7862ZM20.5796 48.4404H3.55962V42.094H21.0299L20.5796 48.4404ZM21.1496 40.4082L21.1406 40.536H20.361V37.0044H22.8271V41.5305H22.5012L22.5724 40.5271C22.5823 40.4237 22.573 40.3191 22.5453 40.2196C22.5176 40.1202 22.4719 40.0277 22.411 39.9479C22.3501 39.868 22.2751 39.8022 22.1906 39.7545C22.1061 39.7068 22.0136 39.6781 21.9188 39.67C21.8239 39.662 21.7286 39.6748 21.6383 39.7077C21.5481 39.7406 21.4647 39.7929 21.3933 39.8615C21.3218 39.9302 21.2637 40.0138 21.2222 40.1074C21.1808 40.201 21.1569 40.3028 21.152 40.4067L21.1496 40.4082ZM22.0076 48.4404L22.0646 47.6385H37.8865L37.9435 48.4404H22.0076ZM38.7995 40.4082C38.7946 40.3043 38.7708 40.2026 38.7293 40.109C38.6879 40.0153 38.6297 39.9317 38.5583 39.8631C38.4868 39.7944 38.4035 39.7421 38.3132 39.7092C38.223 39.6763 38.1276 39.6635 38.0327 39.6716C37.9379 39.6796 37.8455 39.7084 37.7609 39.7561C37.6764 39.8038 37.6015 39.8695 37.5406 39.9494C37.4796 40.0293 37.434 40.1217 37.4062 40.2212C37.3785 40.3207 37.3693 40.4252 37.3791 40.5287L37.4504 41.5321H37.1264V37.006H39.59V40.5375H38.8109L38.7995 40.4082ZM56.3895 48.4404H39.3705L38.9197 42.094H56.3895V48.4404Z" fill="current"/>
</svg>
