<svg viewBox="0 0 35 58" fill="current" xmlns="http://www.w3.org/2000/svg">
<path d="M17.4981 0C7.84977 0 0 7.84977 0 17.5C0 21.1773 1.14134 24.7037 3.22481 27.5766C3.2937 27.7162 5.24311 30.4514 5.91153 31.7137C7.96335 35.5828 8.71183 39.1762 8.72672 39.234C8.92967 40.2412 9.82152 40.973 10.8474 40.973H11.6071V45.8232H8.59639V47.5715H9.72098V54.1813C9.72098 56.1326 11.3073 57.7189 13.2549 57.7189H17.4981H21.7414C23.6908 57.7189 25.2753 56.1307 25.2753 54.1813V47.5734H26.3999V45.8251H23.3929V40.9748H24.1488C25.1748 40.9748 26.0647 40.2431 26.2733 39.2358C26.2844 39.1781 27.0367 35.5846 29.0885 31.7156C29.7569 30.4532 31.7063 27.72 31.7715 27.5785C33.8587 24.7056 35 21.1773 35 17.5019C35 7.84977 27.1484 0 17.4981 0ZM18.3732 1.955C20.7918 4.24141 26.6792 10.2702 25.3256 20.3319C24.9979 22.7878 23.8677 25.2772 22.7729 27.6865L22.5942 28.0737C21.2778 30.9783 20.0564 36.0073 19.6375 39.2228H18.3714L18.3732 1.955ZM21.6427 40.973V45.8232H18.3732V40.973H21.6427ZM16.6249 1.955V39.2246H15.3551C14.9362 36.0073 13.7148 30.9783 12.3984 28.0756L12.2234 27.6883C11.1286 25.279 9.99468 22.7897 9.66698 20.3338C8.31897 10.2702 14.2063 4.23955 16.6249 1.955ZM16.6212 40.973V45.8232H13.3554V40.973H16.6212ZM10.8456 39.2228C10.6501 39.2228 10.4788 39.0813 10.4453 38.923C10.4378 38.8746 9.65954 34.9814 7.38988 30.7642C6.68795 29.459 4.71619 26.6829 4.71619 26.6829C2.77051 23.9831 1.7446 20.8086 1.7446 17.5C1.7446 10.0394 6.96351 3.78897 13.9382 2.16911C10.9927 5.32317 6.69725 11.3743 7.92983 20.5647C8.2929 23.2775 9.47893 25.886 10.6277 28.4107L10.8027 28.7961C11.9925 31.4158 13.1636 36.1339 13.5919 39.2246L10.8456 39.2228ZM23.527 47.5734V54.1813C23.527 55.1662 22.7264 55.9706 21.7414 55.9706H17.4981H13.253C12.2681 55.9706 11.4674 55.1662 11.4674 54.1813V47.5734H17.4981H23.527ZM30.2764 26.6829C30.2764 26.6829 28.3083 29.459 27.6064 30.7642C25.333 34.9814 24.5585 38.8728 24.551 38.923C24.5175 39.0813 24.3443 39.2228 24.147 39.2228H21.4007C21.8289 36.1339 23.0001 31.4158 24.1861 28.7943L24.3611 28.4089C25.5099 25.886 26.6959 23.2756 27.059 20.5628C28.2916 11.3725 23.9962 5.32131 21.0544 2.16725C28.029 3.7871 33.2479 10.0394 33.2479 17.4981C33.2498 20.8086 32.222 23.9831 30.2764 26.6829Z" fill="current"/>
</svg>
