<svg viewBox="0 0 55 55" fill="current" xmlns="http://www.w3.org/2000/svg">
<path fill-rule="evenodd" clip-rule="evenodd" d="M20.8437 29.4063C21.6901 30.8784 23.0161 32.0877 24.8323 33.0337C22.878 30.0357 22.292 26.8873 23.3571 23.6693C22.3403 22.9544 21.1633 22.3897 19.9546 21.951C19.5072 24.4583 19.5445 27.1434 20.8437 29.4063ZM16.4719 46.507C15.9977 46.507 15.6146 46.122 15.6146 45.6478C15.6146 45.1736 15.9977 44.788 16.4719 44.788H27.0261C29.135 44.788 29.1185 40.9858 27.0261 40.9858H21.3705C21.2323 40.9858 21.0991 40.9522 20.9763 40.8917L13.4092 37.7923C12.3013 37.3358 11.1988 37.3614 10.1074 37.8674L6.65111 39.466C6.53378 39.5198 6.41156 39.5455 6.29423 39.5455L0.85736 39.5473C0.383154 39.5473 0 39.1623 0 38.6881C0 38.2139 0.383154 37.8283 0.85736 37.8283H6.10785L9.38819 36.3104C10.9055 35.6088 12.5139 35.5734 14.0636 36.2083L21.5293 39.2687H27.0249C29.0641 39.2687 30.1989 40.8923 30.2997 42.637L38.4847 38.4467C41.7008 36.8011 45.0557 41.9471 41.8127 43.6526L21.5507 54.3119C20.0969 55.0757 18.5527 55.2053 16.9926 54.692L6.94932 51.3817C6.48612 51.2301 6.13963 51.1745 5.65503 51.1745H0.85736C0.383154 51.1745 0 50.7895 0 50.3153C0 49.8411 0.383154 49.4555 0.85736 49.4555H5.65503C6.28324 49.4555 6.89066 49.5533 7.48708 49.7501L17.5304 53.0604C18.6432 53.427 19.7138 53.339 20.752 52.7945L41.014 42.1353C42.1585 41.5321 40.5239 39.3249 39.262 39.9708L29.8683 44.7819C29.3519 45.7823 28.409 46.5082 27.0249 46.5082H16.4707L16.4719 46.507ZM38.5287 8.49168C39.0029 8.49168 39.386 8.87667 39.386 9.35087C39.386 9.82508 39.0029 10.2107 38.5287 10.2107H27.9745C25.8656 10.2107 25.8815 14.0135 27.9745 14.0135H33.6295C33.7683 14.0135 33.9015 14.0471 34.0182 14.107L41.5853 17.2077C42.6981 17.6635 43.8005 17.6385 44.8926 17.1319L48.3489 15.5333C48.4662 15.4801 48.5884 15.4544 48.7058 15.4544L54.1426 15.4532C54.6168 15.4532 55 15.8376 55 16.3124C55 16.7872 54.6168 17.1722 54.1426 17.1722H48.8921L45.6118 18.6902C44.0939 19.3917 42.4861 19.4271 40.9364 18.7922L33.4707 15.7319H27.9751C25.9359 15.7319 24.8011 14.1082 24.7003 12.3635L16.5153 16.5538C13.2992 18.1995 9.94428 13.0541 13.1867 11.3479L33.4487 0.688049C34.9024 -0.0758142 36.4467 -0.205365 38.0068 0.307951L48.0501 3.61884C48.5133 3.77039 48.8598 3.826 49.3437 3.826H54.142C54.6162 3.826 54.9994 4.21038 54.9994 4.68519C54.9994 5.16001 54.6162 5.545 54.142 5.545H49.3437C48.7155 5.545 48.1087 5.44722 47.5117 5.24984L37.4684 1.93895C36.3556 1.5723 35.285 1.66091 34.2467 2.20478L13.9854 12.8646C12.8402 13.4678 14.4755 15.675 15.7374 15.0291L25.1311 10.218C25.6475 9.21765 26.5904 8.49168 27.9745 8.49168H38.5287ZM30.1683 33.0331C31.9845 32.0877 33.3099 30.8778 34.1569 29.4063C35.4353 27.1794 35.5099 24.5249 35.0461 21.9516C33.8373 22.3903 32.6604 22.955 31.6435 23.6699C32.7086 26.888 32.1226 30.0351 30.1683 33.0331ZM27.5003 19.9264C28.4854 21.0936 29.3537 22.4056 29.8915 23.8417C31.1907 27.3151 30.1793 30.5808 27.5003 33.7334C23.3522 28.8575 23.7782 24.3385 27.5003 19.9264ZM30.9725 22.0506C32.309 21.1688 33.8269 20.5094 35.4402 20.012C35.9193 19.8647 36.4253 20.1556 36.5316 20.6628C36.9313 22.4166 37.0853 24.0372 36.9948 25.5252C38.5977 25.4287 40.2275 25.6193 41.878 25.9927C42.3626 26.1027 42.656 26.605 42.5069 27.0798C41.3403 30.8509 39.4875 33.4853 36.9313 34.9678C34.4179 36.4265 31.2756 36.7418 27.5003 35.8997C23.725 36.7418 20.5828 36.4265 18.0693 34.9678C15.5132 33.4853 13.6603 30.8509 12.4937 27.0798C12.3446 26.6026 12.6374 26.1027 13.122 25.9927C14.7725 25.6193 16.4023 25.4287 18.0052 25.5252C17.9147 24.0378 18.0693 22.4166 18.4684 20.6628C18.5747 20.1556 19.0807 19.8647 19.5604 20.012C21.1737 20.5094 22.6916 21.1688 24.0281 22.0506C24.6936 20.7123 25.6414 19.3813 26.8715 18.0559C27.2125 17.6874 27.793 17.691 28.1285 18.0589C29.3586 19.3831 30.307 20.7141 30.9725 22.0506ZM18.2349 27.2632C18.9273 30.5802 21.0038 33.0129 24.1992 34.6317C22.1545 34.7197 20.397 34.3365 18.9273 33.4841C16.962 32.3425 15.4606 30.3357 14.4327 27.4752C15.7056 27.2473 16.9889 27.1507 18.2349 27.2632ZM30.8026 34.6317C33.9974 33.0135 36.0745 30.5802 36.7669 27.2632C38.0129 27.1507 39.2962 27.2473 40.5691 27.4752C39.5357 30.3357 38.0398 32.3419 36.069 33.4841C34.6048 34.3359 32.8473 34.7197 30.8026 34.6317Z" fill="current"/>
</svg>
