<svg viewBox="0 0 50 50" fill="current" xmlns="http://www.w3.org/2000/svg">
<path d="M0.271132 40.1525C0.277764 40.565 0.313408 40.9692 0.367289 41.3675C0.375578 41.4292 0.385525 41.4892 0.395472 41.5508C0.456813 41.9442 0.538049 42.3292 0.643324 42.7058C0.647468 42.72 0.649955 42.7342 0.6541 42.7492C0.887859 43.5683 1.22358 44.3417 1.64468 45.06C1.6712 45.1058 1.69939 45.1508 1.72757 45.1967C1.91988 45.5125 2.12712 45.8167 2.35176 46.1083C2.3816 46.1475 2.40978 46.1883 2.44045 46.2275C2.69245 46.545 2.96102 46.8475 3.24949 47.1317C3.29343 47.175 3.3415 47.2142 3.38627 47.2567C3.62666 47.485 3.87783 47.7 4.13894 47.9042C4.22846 47.9742 4.31965 48.0425 4.41166 48.1092C4.63713 48.2725 4.86923 48.4242 5.10796 48.5683C5.11957 48.5758 5.12869 48.5867 5.14112 48.5942C5.17511 48.6142 5.20909 48.6342 5.24391 48.6542C5.28701 48.6825 5.33012 48.71 5.37488 48.7358C5.37737 48.7375 5.37985 48.7392 5.38234 48.7408C5.384 48.7417 5.38566 48.7417 5.38814 48.7433C5.39726 48.7483 5.40638 48.7517 5.4155 48.7567C5.78437 48.9617 6.17066 49.1383 6.56606 49.2958C6.60253 49.31 6.639 49.3225 6.67548 49.3367C6.99379 49.4592 7.31956 49.5642 7.65196 49.6533C7.72988 49.6742 7.80863 49.695 7.88738 49.7142C8.18497 49.7858 8.48836 49.8433 8.79589 49.8875C8.88293 49.9 8.96914 49.9175 9.05701 49.9275C9.43583 49.9717 9.81962 50 10.2109 50C10.6079 50 10.9975 49.97 11.383 49.9242C11.412 49.9208 11.4418 49.9142 11.4717 49.9108C11.853 49.8617 12.2269 49.7892 12.5932 49.6983C12.604 49.6958 12.6148 49.695 12.6247 49.6925C12.6305 49.6908 12.6347 49.6875 12.6397 49.6867C15.8435 48.8733 18.4273 46.5 19.548 43.415C19.5505 43.4075 19.5563 43.4017 19.5588 43.3942C19.5654 43.375 19.5704 43.355 19.577 43.3358C19.6582 43.1058 19.732 42.8725 19.7967 42.635C19.8149 42.5683 19.8315 42.5017 19.8481 42.435C19.9003 42.2258 19.9492 42.015 19.9882 41.8008C20.0122 41.6708 20.0288 41.54 20.0478 41.4092C20.0702 41.2483 20.0968 41.09 20.1117 40.9267C20.1407 40.6175 20.1581 40.3092 20.1581 40C20.1581 39.6742 20.1407 39.35 20.1092 39.0267C20.0918 38.8483 20.0603 38.6742 20.0338 38.4992C20.013 38.3625 19.9981 38.225 19.9716 38.0892C19.926 37.8525 19.8655 37.6217 19.8033 37.3908C19.7842 37.3208 19.7702 37.2492 19.7494 37.1792C19.6757 36.9275 19.5886 36.6825 19.4958 36.44C19.4792 36.3975 19.4684 36.3533 19.4518 36.3108C19.4502 36.3058 19.446 36.3017 19.4436 36.2967C18.4472 33.7942 16.4776 31.7875 14.0024 30.7575C13.9966 30.755 13.9925 30.7508 13.9875 30.7492C13.9485 30.7333 13.9071 30.7233 13.8681 30.7083C13.5706 30.5892 13.2663 30.485 12.9555 30.395C12.8875 30.3758 12.8187 30.36 12.7507 30.3417C12.4465 30.2608 12.1373 30.1942 11.8223 30.1425C11.7743 30.135 11.7262 30.1275 11.6781 30.12C11.3308 30.0683 10.9785 30.0342 10.6212 30.02C10.6104 30.0192 10.5997 30.0183 10.588 30.0183C10.4612 30.0142 10.3377 30 10.2109 30C8.74284 30 7.35189 30.33 6.09605 30.9067C6.09108 30.9092 6.08611 30.9117 6.08113 30.9133C5.75204 31.065 5.43373 31.235 5.12537 31.4208C5.10299 31.4342 5.07895 31.4442 5.05657 31.4575C5.04911 31.4617 5.04496 31.47 5.0375 31.4742C2.181 33.2342 0.263672 36.3925 0.263672 40C0.263672 40.0417 0.269474 40.0817 0.270303 40.1233C0.270303 40.125 0.269474 40.1258 0.269474 40.1275C0.269474 40.1358 0.271132 40.1433 0.271132 40.1525ZM6.64481 32.4883C6.83298 32.3975 7.0228 32.3133 7.21677 32.2375C7.2433 32.2275 7.26982 32.2183 7.29635 32.2083C8.11368 31.8992 8.97577 31.7258 9.84284 31.685C9.91744 31.6817 9.99204 31.675 10.0666 31.6733C10.2125 31.67 10.3584 31.6758 10.5043 31.6808C10.6278 31.685 10.7513 31.69 10.8732 31.7C11.0009 31.71 11.1277 31.7242 11.2545 31.74C11.3913 31.7575 11.5264 31.7783 11.6607 31.8025C11.7784 31.8233 11.8961 31.8442 12.013 31.8708C12.0503 31.8792 12.0859 31.8908 12.1232 31.8992L9.8677 34.1667H7.40743L6.58678 32.5167C6.60585 32.5075 6.62574 32.4983 6.64481 32.4883ZM16.713 41.2808L18.3809 38.645C18.3958 38.7358 18.4107 38.8267 18.4223 38.9183C18.4364 39.0233 18.4521 39.1275 18.4613 39.2325C18.4845 39.4858 18.5002 39.7408 18.5002 40C18.5002 40.3717 18.4687 40.7425 18.4173 41.1125C18.409 41.1733 18.3991 41.2342 18.3891 41.295C18.3303 41.6617 18.2524 42.0267 18.1438 42.3883L15.4904 42.9217L16.6766 41.3333C16.6791 41.3308 16.6791 41.3267 16.6807 41.3242L16.713 41.2808ZM11.7361 48.1833C11.3963 48.2492 11.0605 48.2842 10.7273 48.3075C10.6361 48.3133 10.5441 48.3192 10.4521 48.3217C10.1951 48.33 9.94065 48.3233 9.68783 48.3075C9.59581 48.3017 9.50214 48.3025 9.41013 48.2933C9.08105 48.2608 8.75527 48.2092 8.43365 48.1367C8.37894 48.125 8.32671 48.1083 8.27283 48.095C7.97359 48.0208 7.67683 47.9325 7.38505 47.825C7.36598 47.8183 7.34774 47.8108 7.32868 47.8042L9.75 45.7758L12.4233 45.2383L11.7361 48.1833ZM13.0533 43.4117L10.0318 44.0192L9.60908 41.8933L9.46816 41.185L11.9201 39.3367L14.799 41.0725L13.0533 43.4117ZM8.55301 39.7917L6.28837 38.0842L7.40743 35.8333H9.6986L10.8185 38.0842L8.55301 39.7917ZM5.12288 39.2892L7.802 41.3092L8.47261 44.6775L5.71226 46.9892C5.69485 46.9783 5.67661 46.9683 5.66003 46.9575C5.15273 46.6217 4.68852 46.2333 4.27323 45.8025C4.23344 45.7617 4.19696 45.7175 4.15883 45.6758C3.9889 45.4925 3.82643 45.3033 3.67391 45.1058C3.63826 45.06 3.60428 45.0125 3.56946 44.965C3.41528 44.7558 3.26939 44.5408 3.13593 44.3192C3.11521 44.2858 3.09531 44.2525 3.07542 44.2183C2.4504 43.15 2.0608 41.9433 1.95718 40.6808C1.95636 40.6717 1.95636 40.6633 1.95553 40.6542L5.12288 39.2892ZM13.573 47.61L14.2113 44.8783L17.3265 44.2525C16.4519 45.7258 15.143 46.9058 13.573 47.61ZM17.7451 36.545L15.749 39.7017L12.5021 37.7433L11.2189 35.1642L13.8466 32.5225C15.5641 33.37 16.9468 34.7933 17.7451 36.545ZM5.17179 33.3983L5.9684 35L4.63133 37.6875L2.01521 38.8142C2.32938 36.6158 3.49569 34.6942 5.17179 33.3983Z" fill="current"/>
<path d="M1.85301 19.4825L22.263 33.5108C22.2033 33.6625 22.1578 33.8167 22.1097 33.9708C22.1064 33.9825 22.1022 33.9933 22.0989 34.0042C22.0168 34.2725 21.9522 34.5433 21.9074 34.8183C21.9008 34.8558 21.8917 34.8933 21.8859 34.9308C21.8436 35.2242 21.8162 35.5192 21.8162 35.8183C21.8162 35.8217 21.8171 35.8242 21.8171 35.8275C21.8171 35.8292 21.8162 35.8308 21.8162 35.8333C21.8162 37.3442 22.3857 38.8175 23.4633 40.14C23.4285 40.1758 23.397 40.2142 23.363 40.2508C23.3473 40.2683 23.329 40.2825 23.3133 40.3C23.3091 40.305 23.3075 40.3117 23.3033 40.3158C22.3824 41.3458 21.8162 42.7025 21.8162 44.1925C21.8162 45.6667 22.37 47.0108 23.2735 48.0358C23.2776 48.0408 23.2785 48.0475 23.2834 48.0525C23.3025 48.0742 23.3241 48.0917 23.3431 48.1133C23.4459 48.2258 23.5529 48.3342 23.6639 48.4383C23.6996 48.4717 23.736 48.505 23.7725 48.5375C23.8869 48.64 24.0063 48.7367 24.129 48.8292C24.1638 48.855 24.1978 48.8817 24.2326 48.9075C24.3636 49.0025 24.4995 49.0908 24.6379 49.1742C24.6669 49.1917 24.696 49.2108 24.7258 49.2275C24.8758 49.3142 25.0308 49.3933 25.1883 49.4667C25.2091 49.4758 25.229 49.4875 25.2497 49.4967C25.418 49.5725 25.5904 49.6392 25.7669 49.6983C25.7794 49.7025 25.7918 49.7083 25.8042 49.7125C25.9841 49.7717 26.1673 49.8217 26.3546 49.8625C26.3646 49.865 26.3754 49.8683 26.3853 49.8708C26.5644 49.9092 26.7467 49.9383 26.9308 49.9592C26.949 49.9617 26.9672 49.9658 26.9855 49.9675C27.1852 49.9883 27.3875 50 27.5931 50C28.6276 50 29.5974 49.7217 30.4388 49.24C30.4421 49.2383 30.4446 49.2367 30.4479 49.235C30.6121 49.1408 30.7712 49.0383 30.9254 48.9283C30.9461 48.9133 30.966 48.8975 30.9867 48.8825C31.1219 48.7833 31.2528 48.6792 31.3788 48.5692C31.4087 48.5433 31.4368 48.5158 31.4659 48.4892C31.5819 48.3833 31.693 48.2742 31.7999 48.16C31.8132 48.1458 31.8289 48.1333 31.8422 48.1183C31.8463 48.1133 31.848 48.1067 31.8521 48.1017C32.6587 47.215 33.1983 46.08 33.3343 44.8225C34.2005 44.9283 35.0634 45 35.9081 45C36.9078 45 37.8818 44.93 38.8227 44.8L42.5744 47.1508C42.8082 48.7608 44.1908 50 45.8553 50C47.684 50 49.1711 48.505 49.1711 46.6667C49.1711 44.8283 47.684 43.3333 45.8553 43.3333H45.29L44.7603 42.9558C45.5652 42.5317 46.2922 42.05 46.9371 41.5225C46.9744 41.5 47.015 41.4867 47.0498 41.4575C48.0976 40.5783 48.8668 39.6017 49.3609 38.5642C49.365 38.5558 49.3684 38.5467 49.3725 38.5383C49.4935 38.2817 49.5963 38.0208 49.6825 37.7567C49.6991 37.7058 49.7157 37.655 49.7314 37.6033C49.7994 37.3733 49.8541 37.1417 49.8956 36.9075C49.908 36.8408 49.9229 36.7758 49.9329 36.7092C49.9735 36.42 50 36.1283 50 35.8333C50 35.5383 49.9735 35.2467 49.932 34.9567C49.9221 34.89 49.9063 34.8242 49.8947 34.7583C49.8533 34.5242 49.7994 34.2925 49.7306 34.0625C49.7148 34.0108 49.6983 33.96 49.6817 33.9092C49.5963 33.645 49.4927 33.3842 49.3717 33.1275C49.3675 33.1192 49.3642 33.11 49.3601 33.1017C48.866 32.0642 48.0968 31.0875 47.049 30.2083C47.0158 30.1808 46.9769 30.1692 46.9412 30.1475C45.4235 28.9033 43.4232 27.9233 41.1229 27.325C41.1785 27.3033 41.2324 27.2783 41.2871 27.2558C41.3501 27.23 41.4122 27.2033 41.4752 27.1767C43.5144 26.295 45.3348 24.9325 46.7754 23.1767C46.7771 23.1742 46.7788 23.1725 46.7812 23.17C47.0656 22.8225 47.34 22.465 47.5936 22.0875C47.6044 22.0717 47.6085 22.0542 47.6176 22.0375C49.1205 19.7842 50 17.0775 50 14.1667C50 13.8192 49.9784 13.4533 49.9445 13.07C49.9246 12.8133 49.8972 12.56 49.8641 12.3075C49.8624 12.2967 49.8624 12.2883 49.8607 12.2783C49.8599 12.275 49.8583 12.2717 49.8583 12.2683C49.1454 6.9525 45.4964 2.5725 40.604 0.826667C40.5957 0.823333 40.5891 0.8175 40.5808 0.814167C40.5601 0.806667 40.5385 0.8025 40.5178 0.795C40.2045 0.685833 39.887 0.589167 39.5645 0.501667C39.4642 0.474167 39.3639 0.449167 39.2636 0.423333C38.9826 0.354167 38.7 0.29 38.4132 0.2375C38.2242 0.2025 38.0352 0.1775 37.8462 0.15C37.6306 0.12 37.4168 0.0858333 37.1988 0.0658333C36.7694 0.025 36.3392 0 35.9081 0C35.4837 0 35.0626 0.0258333 34.6448 0.0641666C34.5047 0.0766666 34.3655 0.0941666 34.2262 0.110833C33.9469 0.145 33.67 0.188333 33.3948 0.239167C33.2414 0.2675 33.0873 0.291667 32.9356 0.324167C32.5833 0.401667 32.2343 0.490833 31.8911 0.595C31.6806 0.658333 31.4758 0.733333 31.2694 0.805833C31.1102 0.8625 30.9519 0.919167 30.7953 0.980833C30.5731 1.06833 30.3526 1.15917 30.1362 1.25833C30.0169 1.3125 29.9 1.3725 29.7823 1.43C29.3512 1.63917 28.9343 1.86833 28.5306 2.12C28.4444 2.17333 28.3557 2.22333 28.2703 2.27917C28.0631 2.41417 27.8633 2.55667 27.6635 2.7025C27.5458 2.78833 27.4298 2.87583 27.3146 2.965C27.1264 3.11083 26.9399 3.25833 26.7592 3.41333C26.6423 3.51417 26.5304 3.62167 26.4168 3.72667C26.125 3.995 25.8457 4.27417 25.5771 4.56583C25.4586 4.695 25.3384 4.8225 25.224 4.95583C25.0798 5.12417 24.9421 5.2975 24.8062 5.47333C24.7009 5.60917 24.599 5.74667 24.4987 5.88667C24.366 6.07167 24.2334 6.25583 24.1091 6.44667C24.0345 6.56167 23.9665 6.6825 23.8952 6.8C23.6523 7.19833 23.4302 7.60833 23.2271 8.03083C23.1865 8.11583 23.14 8.1975 23.1003 8.28417C23.0978 8.29 23.0986 8.2975 23.0961 8.30333C22.2821 10.0917 21.8162 12.0733 21.8162 14.1667C21.8162 14.4908 21.8436 14.8083 21.8643 15.1275C21.8643 15.13 21.8635 15.1333 21.8635 15.1358C21.8635 15.1417 21.8651 15.1467 21.8651 15.1525C21.8958 15.5942 21.9472 16.0283 22.0168 16.4583C22.021 16.4825 22.0235 16.5067 22.0276 16.53C22.0989 16.9517 22.1884 17.3658 22.2954 17.7742C22.3028 17.8042 22.3103 17.8333 22.3186 17.8633C22.4272 18.2667 22.5532 18.6617 22.6957 19.0492C22.7073 19.08 22.7181 19.1117 22.7297 19.1425C22.874 19.5275 23.0348 19.9042 23.2105 20.2725C23.2246 20.3025 23.2395 20.3333 23.2536 20.3633C23.4327 20.7308 23.6258 21.0883 23.8347 21.4375C23.8504 21.4642 23.867 21.4908 23.8828 21.5175C24.0204 21.7433 24.1547 21.9708 24.3039 22.1883C24.3105 22.1992 24.3138 22.2117 24.3213 22.2225C24.526 22.5192 24.744 22.8033 24.9678 23.0817C25.025 23.1517 25.0831 23.2208 25.1411 23.29C25.3889 23.5858 25.6451 23.8733 25.9145 24.1458C25.9286 24.16 25.9418 24.175 25.9559 24.1892C26.2394 24.4733 26.5362 24.74 26.8412 24.9983C26.9117 25.0575 26.9813 25.1167 27.0526 25.175C27.3535 25.42 27.6619 25.6542 27.9802 25.8725C28.0457 25.9175 28.1145 25.9583 28.1808 26.0025C28.4519 26.1817 28.7295 26.3508 29.0122 26.5108C29.1067 26.5642 29.1996 26.62 29.2957 26.6717C29.6148 26.8425 29.9415 27 30.2739 27.1458C30.3924 27.1983 30.5126 27.2467 30.6328 27.2958C30.656 27.305 30.6784 27.315 30.7016 27.3242C29.3256 27.6817 28.0507 28.1708 26.9274 28.7767L6.93023 12.6117C6.00763 11.8658 4.8521 11.5442 3.68081 11.7067C2.50787 11.8683 1.48248 12.4908 0.794463 13.46C0.123855 14.4042 -0.134772 15.5533 0.0666589 16.6958C0.266432 17.8375 0.901396 18.8275 1.85301 19.4825ZM29.9473 47.5808C29.8693 47.6358 29.7856 47.68 29.7044 47.7283C29.5867 47.8 29.4665 47.8667 29.3421 47.9267C29.2112 47.9867 29.0777 48.0408 28.9409 48.0867C28.8812 48.1075 28.8199 48.125 28.7594 48.1433C27.9736 48.3667 27.1206 48.3592 26.3356 48.115C26.3091 48.1067 26.2817 48.0992 26.256 48.09C26.0952 48.0358 25.9385 47.9683 25.7852 47.8942C25.6973 47.8508 25.6119 47.8033 25.5274 47.7533C25.4163 47.6892 25.3052 47.6242 25.1999 47.5483C25.1792 47.5333 25.1618 47.515 25.1411 47.4992C26.5395 46.4792 28.5919 46.4892 29.9962 47.5408C29.9779 47.5533 29.9647 47.5692 29.9473 47.5808ZM27.5409 45.0517C26.2718 45.0517 25.0433 45.485 24.0419 46.2542C23.6905 45.645 23.4741 44.9467 23.4741 44.1925C23.4741 43.4267 23.6963 42.7183 24.0577 42.1025C25.0648 42.89 26.3074 43.3333 27.5931 43.3333C28.8771 43.3333 30.118 42.8908 31.1243 42.1058C31.1442 42.14 31.1666 42.1733 31.1857 42.2092C31.2338 42.2967 31.286 42.3808 31.3283 42.4725C31.3962 42.6217 31.4476 42.78 31.4982 42.9383C31.528 43.0308 31.5612 43.1225 31.5844 43.2175C31.6242 43.3825 31.6457 43.5533 31.6648 43.725C31.6822 43.8808 31.7121 44.0325 31.7121 44.1925C31.7121 44.9692 31.4849 45.6892 31.1127 46.3108C30.0998 45.5058 28.8439 45.0517 27.5409 45.0517ZM25.1966 40.8392C25.3649 40.7175 25.544 40.6175 25.7247 40.5233C25.7479 40.5108 25.7703 40.4975 25.7943 40.485C25.9244 40.4233 26.0579 40.3708 26.1938 40.3233C26.2585 40.2992 26.324 40.2775 26.3903 40.2567C27.1869 40.0225 28.0523 40.0242 28.8456 40.2683C28.8622 40.2733 28.8788 40.2783 28.8945 40.2833C29.0553 40.335 29.2112 40.4025 29.3645 40.4742C29.4167 40.4992 29.4673 40.5267 29.5187 40.5542C29.5585 40.5758 29.5991 40.5967 29.6381 40.6192C29.7342 40.6733 29.8287 40.73 29.9199 40.7925C29.9522 40.815 29.9821 40.8425 30.0136 40.8667C28.6118 41.895 26.566 41.8942 25.166 40.8633C25.1767 40.8567 25.1859 40.8467 25.1966 40.8392ZM25.9874 38.6167C25.9808 38.6183 25.975 38.6217 25.9684 38.6233C25.8192 38.6675 25.6741 38.7192 25.5307 38.775C25.4909 38.79 25.4503 38.8025 25.4113 38.8192C25.3591 38.8408 25.3077 38.8642 25.2563 38.8867C25.2555 38.8867 25.2547 38.8875 25.2538 38.8875C25.0947 38.9592 24.938 39.0358 24.7863 39.1208C23.9267 38.0883 23.4766 36.96 23.4741 35.825C23.4741 35.5892 23.4965 35.3558 23.533 35.125C23.5429 35.0642 23.5562 35.0058 23.5686 34.9467C23.6009 34.7825 23.6424 34.62 23.6921 34.4592C23.717 34.3792 23.7418 34.2983 23.7709 34.2208C23.8173 34.0942 23.8745 33.97 23.9308 33.8458C23.9615 33.7808 23.988 33.7125 24.0204 33.6492C24.0287 33.6358 24.0428 33.6275 24.0502 33.6133C24.1828 33.36 24.3478 33.1017 24.5542 32.8233C24.5642 32.8092 24.5675 32.7925 24.5749 32.7775C24.6545 32.6725 24.7366 32.5733 24.8203 32.4758C24.899 32.3825 24.9952 32.285 25.0914 32.1858L25.0988 32.1792C25.1544 32.1208 25.2157 32.07 25.2729 32.0125C26.2668 33.1717 26.7898 34.4742 26.7898 35.8183C26.7898 36.7767 26.5196 37.7167 25.9874 38.6167ZM33.2713 43.1525C33.2423 42.9908 33.205 42.8333 33.1627 42.6767C33.1594 42.6642 33.1561 42.6508 33.1527 42.6383C33.1121 42.4925 33.0657 42.3492 33.0143 42.2083C33.0052 42.1833 32.9969 42.1583 32.987 42.1342C32.9364 42 32.8809 41.8692 32.8212 41.74C32.8079 41.7117 32.7938 41.6833 32.7806 41.655C32.7192 41.5292 32.6554 41.4058 32.5858 41.285C32.57 41.2583 32.5543 41.2325 32.5385 41.2058C32.4656 41.0842 32.391 40.965 32.3097 40.85C32.2981 40.8342 32.2857 40.8192 32.2749 40.8025C32.153 40.6325 32.0221 40.4708 31.8828 40.315C31.8787 40.31 31.877 40.3033 31.8729 40.2992C31.8571 40.2817 31.8389 40.2667 31.8231 40.25C31.717 40.135 31.6076 40.0258 31.4924 39.92C31.4609 39.8908 31.4302 39.8625 31.3979 39.8342C31.2769 39.7267 31.1509 39.6258 31.0207 39.5292C30.9975 39.5117 30.9743 39.4925 30.9511 39.4758C30.932 39.4617 30.913 39.4475 30.8939 39.4342C30.8011 39.3683 30.7041 39.3083 30.6071 39.2483C30.554 39.215 30.501 39.1817 30.4463 39.15C30.3559 39.0983 30.2631 39.05 30.1694 39.0025C30.1031 38.9692 30.0376 38.9367 29.9696 38.9058C29.9572 38.9 29.9448 38.8933 29.9315 38.8875C29.9307 38.8875 29.9298 38.8867 29.929 38.8867C29.8536 38.8533 29.7765 38.8225 29.6994 38.7917C29.6215 38.7608 29.5436 38.7325 29.464 38.705C29.3778 38.675 29.2916 38.6458 29.2037 38.6208C29.1125 38.5942 29.0197 38.5717 28.9268 38.5492C28.8473 38.53 28.7677 38.51 28.6864 38.4942C28.5745 38.4725 28.461 38.4575 28.3466 38.4417C28.2977 38.435 28.2496 38.4242 28.2007 38.4192C28.199 38.4192 28.1974 38.4183 28.1957 38.4183C28.18 38.4167 28.1634 38.4158 28.1476 38.4142C28.0722 38.4067 27.9959 38.405 27.9205 38.4008C28.2587 37.5633 28.4477 36.7017 28.4477 35.8183C28.4477 34.0733 27.7904 32.4083 26.5445 30.95C26.6066 30.9075 26.6614 30.8667 26.7268 30.8225C26.8984 30.7075 27.07 30.5933 27.2532 30.4858C27.2971 30.46 27.3345 30.4267 27.3726 30.3942C29.6024 29.1208 32.6023 28.3333 35.9081 28.3333C39.6574 28.3333 43.0171 29.3442 45.2983 30.9325C44.035 32.3975 43.3685 34.075 43.3685 35.8333C43.3685 37.5917 44.035 39.2692 45.2983 40.7342C44.6045 41.2175 43.8153 41.6483 42.94 42.0125C42.8994 42.0225 42.8579 42.0292 42.8181 42.045C41.6195 42.5358 40.294 42.8925 38.8782 43.1058C38.8732 43.1067 38.8691 43.1092 38.8641 43.11C37.9141 43.2508 36.9285 43.3333 35.9081 43.3333C35.0444 43.3333 34.1607 43.2725 33.2713 43.1525ZM34.5702 26.5875C34.4351 26.5725 34.3033 26.5492 34.1698 26.53C34.169 26.53 34.169 26.53 34.1682 26.53C33.8615 26.4858 33.5564 26.4325 33.2555 26.3667C33.1221 26.3375 32.9903 26.305 32.8585 26.2708C32.8311 26.2642 32.8038 26.2567 32.7764 26.2492C32.5037 26.1775 32.2343 26.0942 31.9674 26.0042C31.8654 25.97 31.7634 25.9375 31.6623 25.9C31.596 25.8758 31.5289 25.8525 31.4634 25.8267C31.1658 25.7117 30.8748 25.5833 30.588 25.4458C30.5764 25.44 30.564 25.4358 30.5524 25.43C30.4687 25.39 30.3849 25.3508 30.302 25.3092C30.1628 25.2375 30.0293 25.1567 29.8934 25.08C29.7011 24.9725 29.5087 24.8658 29.3222 24.7483C29.1133 24.6158 28.9111 24.4733 28.7105 24.3292C28.5779 24.2342 28.4477 24.1375 28.3184 24.0367C28.107 23.8717 27.8981 23.7033 27.6975 23.525C27.6072 23.445 27.521 23.3583 27.4331 23.275C27.2308 23.0842 27.0286 22.8933 26.8396 22.69C26.8363 22.6858 26.8329 22.6825 26.8288 22.6783C26.5826 22.4125 26.348 22.1358 26.125 21.85C26.1209 21.845 26.1159 21.84 26.1118 21.835C26.0587 21.7667 26.0131 21.6917 25.9609 21.6217C26.0977 21.3217 26.2502 21.0283 26.4176 20.7475C27.0045 19.7575 27.7357 18.5267 29.0603 18.0225C30.8317 17.3458 32.6985 18.4058 34.857 19.6342C35.7382 20.1358 36.65 20.6542 37.6124 21.0825C39.8489 22.0775 42.3581 22.5733 45.1109 22.5425C45.0214 22.6417 44.9344 22.7433 44.8415 22.84C44.7379 22.9475 44.6327 23.0525 44.5265 23.1567C44.3367 23.3408 44.1428 23.5192 43.9413 23.6908C43.8278 23.7875 43.7109 23.8808 43.594 23.9733C43.3917 24.1342 43.1862 24.2917 42.974 24.44C42.8397 24.5333 42.7021 24.6192 42.5645 24.7067C42.3597 24.8383 42.1541 24.9683 41.9411 25.0883C41.7753 25.1808 41.6046 25.2633 41.4346 25.3483C41.2398 25.4458 41.0459 25.5467 40.8453 25.6342C40.6364 25.725 40.4217 25.8017 40.2078 25.8808C40.0346 25.9458 39.8638 26.0158 39.6864 26.0733C39.4294 26.1558 39.1667 26.22 38.9039 26.285C38.7588 26.3217 38.6171 26.3667 38.4704 26.3975C38.1637 26.4625 37.8511 26.5058 37.5378 26.5475C37.4267 26.5625 37.3181 26.5867 37.2054 26.5983C36.7777 26.6425 36.345 26.6667 35.9081 26.6667C35.458 26.6667 35.012 26.6358 34.5702 26.5875ZM48.0238 34.1708C48.0686 34.2858 48.1042 34.4058 48.1407 34.5258C48.1763 34.6475 48.2078 34.7692 48.2335 34.8925C48.2518 34.9783 48.2717 35.0633 48.2849 35.1517C48.3189 35.3767 48.3421 35.6033 48.3421 35.8333C48.3421 36.0633 48.3189 36.29 48.2849 36.515C48.2717 36.6033 48.2518 36.6883 48.2335 36.7742C48.2078 36.8975 48.1763 37.0192 48.1407 37.1408C48.1042 37.2608 48.0686 37.3808 48.0238 37.4958C48.013 37.5242 47.999 37.5508 47.9882 37.5792C47.65 38.4042 47.112 39.1025 46.5583 39.6567C45.5536 38.4933 45.0264 37.1842 45.0264 35.8333C45.0264 34.4825 45.5536 33.1733 46.5583 32.0108C47.112 32.5642 47.65 33.2625 47.9882 34.0883C47.999 34.1158 48.013 34.1433 48.0238 34.1708ZM43.0162 43.7567L44.5473 44.8467C44.6874 44.9467 44.8548 45 45.0264 45H45.8553C46.7696 45 47.5132 45.7475 47.5132 46.6667C47.5132 47.5858 46.7696 48.3333 45.8553 48.3333C44.941 48.3333 44.1975 47.5858 44.1975 46.6667C44.1975 46.3792 44.0499 46.1117 43.807 45.9592L41.2058 44.3292C41.2407 44.32 41.2722 44.3067 41.3061 44.2975C41.8018 44.1633 42.281 44.01 42.746 43.8417C42.8339 43.8108 42.9292 43.7892 43.0162 43.7567ZM46.4182 20.8158C43.3884 21.0292 40.6505 20.6117 38.2838 19.5583C37.3952 19.1625 36.5207 18.665 35.6735 18.1833C33.3641 16.87 30.976 15.5092 28.4726 16.4642C26.6075 17.1742 25.6368 18.81 24.9935 19.8933C24.972 19.9292 24.9546 19.9683 24.933 20.005C24.221 18.6567 23.7435 17.1617 23.5661 15.5733C27.1811 13.8117 31.0207 12.6742 34.9863 12.1883C39.4435 11.6433 43.9131 11.9342 48.2816 13.0508C48.2858 13.0925 48.2874 13.13 48.2907 13.1708C48.3181 13.5008 48.3421 13.8308 48.3421 14.1667C48.3421 16.6117 47.6301 18.8875 46.4182 20.8158ZM47.9923 11.2733C43.6462 10.2483 39.2114 9.9925 34.7882 10.5342C30.8757 11.0125 27.0841 12.1033 23.4948 13.7708C23.5404 12.3067 23.8355 10.9067 24.3428 9.61C25.1204 9.78167 25.8772 9.87 26.61 9.87C27.4381 9.87 28.2355 9.76 28.9965 9.54C30.6013 9.07667 31.606 8.2575 32.8784 7.22167C33.5606 6.66583 34.3348 6.03583 35.3602 5.32167C36.9169 4.23833 38.5939 3.29417 40.3429 2.5025C44.1369 3.96583 47.0357 7.24 47.9923 11.2733ZM25.5033 7.34333C25.6119 7.17583 25.7288 7.015 25.8457 6.85417C25.9294 6.73833 26.014 6.62333 26.101 6.51083C26.2204 6.35667 26.3406 6.20333 26.4666 6.055C26.5669 5.9375 26.6721 5.82583 26.7766 5.71167C26.9946 5.47333 27.2209 5.24417 27.4563 5.025C27.5541 4.93333 27.6519 4.8425 27.7531 4.75333C27.9072 4.61833 28.0631 4.48583 28.2239 4.35833C28.3126 4.28833 28.4046 4.2225 28.495 4.15417C28.7942 3.93 29.1026 3.71917 29.4201 3.5225C29.5145 3.46417 29.6074 3.405 29.7035 3.34917C29.8876 3.24167 30.0749 3.13917 30.2639 3.04167C30.37 2.9875 30.4778 2.9375 30.5855 2.88583C30.8889 2.74083 31.1981 2.60833 31.5123 2.4875C31.6607 2.43083 31.8082 2.37333 31.9591 2.3225C32.1265 2.26583 32.2965 2.2125 32.4672 2.16333C32.6861 2.1 32.9065 2.04333 33.1304 1.99167C33.2821 1.95667 33.4346 1.92167 33.5879 1.8925C33.8797 1.83667 34.174 1.79083 34.4724 1.75667C34.581 1.74417 34.6904 1.7325 34.7998 1.72333C35.1662 1.69083 35.5343 1.66667 35.9081 1.66667C36.2861 1.66667 36.6583 1.69 37.0272 1.72333C37.2104 1.74083 37.3927 1.76667 37.5751 1.7925C37.6812 1.80667 37.7865 1.82417 37.8918 1.84083C36.6865 2.475 35.5235 3.18083 34.416 3.95167C33.3393 4.70083 32.5393 5.3525 31.8339 5.92667C30.6203 6.915 29.8188 7.56833 28.5372 7.93833C27.4596 8.24917 26.3182 8.29167 25.0698 8.06083C25.2024 7.82417 25.3425 7.5925 25.4884 7.36667C25.4942 7.35917 25.4984 7.35083 25.5033 7.34333ZM2.14314 14.4292C2.56341 13.8375 3.19008 13.4567 3.90628 13.3583C4.02731 13.3408 4.14833 13.3333 4.26853 13.3333C4.85707 13.3333 5.42323 13.5325 5.89158 13.9108L25.4238 29.6967C25.2538 29.8183 25.0905 29.9433 24.9322 30.0717C24.9264 30.0758 24.9206 30.08 24.9148 30.085L24.9123 30.0867L24.8228 30.1617C24.8054 30.1742 24.7838 30.1792 24.7672 30.1933C24.3586 30.5358 23.9996 30.8967 23.6739 31.2667C23.6581 31.2842 23.6399 31.3017 23.6241 31.32C23.4467 31.4592 23.3083 31.6408 23.1964 31.86C23.1516 31.92 23.1036 31.9792 23.0613 32.04L2.78971 18.1075C2.20862 17.7075 1.82151 17.1033 1.69883 16.4058C1.57532 15.7075 1.73365 15.0058 2.14314 14.4292Z" fill="current"/>
<path d="M38.395 34.3307V35.834H40.0528V34.6323C40.4963 34.7281 40.9696 34.8373 41.5068 34.9748L41.9146 33.3598C41.2225 33.1831 40.6099 33.0423 40.052 32.929V30.834H38.3941V32.6507C37.8023 32.5748 37.2643 32.5357 36.7363 32.5165V30.834H35.0784V32.5157C34.4683 32.5357 33.9212 32.5773 33.4205 32.6356V30.834H31.7627V32.9098C31.2073 33.0273 30.6834 33.159 30.1545 33.2948L29.9009 33.3598L30.3087 34.9748L30.564 34.9098C30.9702 34.8056 31.3623 34.7057 31.7627 34.614V35.834H33.4205V34.3157C33.9187 34.2515 34.46 34.204 35.0784 34.1823V35.834H36.7363V34.184C37.2635 34.204 37.7973 34.2473 38.395 34.3307Z" fill="current"/>
</svg>
