<svg viewBox="0 0 50 40" fill="current" xmlns="http://www.w3.org/2000/svg">
<path fill-rule="evenodd" clip-rule="evenodd" d="M1.13632 0C0.541344 0 0 0.577389 0 1.21198V13.1803C0 18.0084 3.00546 22.1213 7.10202 23.2549V34.9581C5.9199 35.0006 4.86216 35.047 3.99486 35.1475C3.43119 35.2128 2.95609 35.2906 2.48571 35.4884C2.25055 35.5873 1.99692 35.703 1.75778 35.9618C1.51858 36.2207 1.33166 36.6739 1.33166 37.0981C1.33166 37.571 1.53824 37.9902 1.75778 38.2532C1.97732 38.5162 2.21714 38.676 2.46798 38.8213C2.96955 39.1121 3.5401 39.316 4.2257 39.4841C5.5969 39.8204 7.38116 39.9955 9.35694 39.9955C9.85846 40.0015 10.3418 40.0015 10.8128 39.9955C12.7886 39.9955 14.5906 39.8204 15.9618 39.4841C16.6474 39.316 17.218 39.1121 17.7195 38.8213C17.9703 38.676 18.2103 38.5162 18.4297 38.2532C18.6492 37.9902 18.8559 37.571 18.8559 37.0981C18.8559 36.6739 18.6512 36.2207 18.412 35.9618C18.1728 35.703 17.937 35.5873 17.7018 35.4884C17.2314 35.2906 16.7385 35.2128 16.1749 35.1475C15.3075 35.047 14.2499 35.0007 13.0677 34.9581V28.2733C15.2156 30.6356 18.2353 32.7507 22.2116 33.803V36.8708C22.2116 37.5054 22.7529 38.0828 23.3479 38.0828C27.3961 38.0828 31.4442 38.0828 35.4924 38.0828C36.0874 38.0828 36.6287 37.5054 36.6287 36.8708V33.803C41.4711 32.5206 44.8973 29.6543 47.0509 26.7015C48.1941 25.1341 48.9912 23.5413 49.4656 22.1187C49.9399 20.6961 50.1426 19.4805 49.8917 18.3691C49.7736 17.8465 49.295 17.443 48.7909 17.4412H40.3928L48.5956 8.61645C48.9118 8.27552 49.0094 7.72449 48.8313 7.28404C48.6533 6.84359 48.2107 6.541 47.7611 6.55229C47.4704 6.55968 47.1842 6.69152 46.9799 6.9121L38.3332 16.2292L46.0034 2.00735C46.3961 1.28233 45.8294 0.207867 45.0445 0.189373C44.6445 0.185737 44.2503 0.425825 44.0503 0.795365L35.0485 17.4412C29.8167 17.4412 24.5848 17.4412 19.353 17.4412C19.8889 16.1338 20.1875 14.6982 20.1875 13.1803V1.21198C20.1875 0.577389 19.6461 0 19.0511 0C13.0795 0 7.10793 0 1.13632 0ZM2.27265 2.42397C7.48672 2.42397 12.7007 2.42397 17.9148 2.42397V13.1803C17.9148 17.2253 15.1945 20.55 11.7716 21.0772C11.2376 21.158 10.7981 21.6949 10.7951 22.2702V36.1323C10.7951 37.5411 9.37467 37.4742 9.37467 36.1323V22.2702C9.36899 21.6949 8.93213 21.158 8.39811 21.0772C4.97534 20.55 2.27265 17.2253 2.27265 13.1803V2.42397ZM17.9504 19.8652C23.7207 19.8652 29.4912 19.8652 35.2615 19.8652H47.6546C47.6006 20.2693 47.4975 20.7637 47.3172 21.3044C46.9325 22.4578 46.2546 23.8386 45.2576 25.2055C43.2639 27.9392 40.0271 30.6371 35.2615 31.6631C34.7587 31.7743 34.3614 32.2894 34.3561 32.8372V35.6588C31.0654 35.6588 27.7749 35.6588 24.4842 35.6588V32.8372C24.4786 32.2894 24.0816 31.7743 23.5787 31.6631C18.3652 30.5412 14.9882 27.4268 13.0677 24.448V23.2549C15.0088 22.7178 16.7006 21.5015 17.9504 19.8652Z" fill="current"/>
</svg>
